External Loads File
version=1
nRows=54
nColumns=13
Range=5.000000e-03-10 seconds
endheader
time 	forceRightX 	forceRightY 	forceRightZ 	pointRightX 	pointRightY 	pointRightZ 	forceLeftX 	forceLeftY 	forceLeftZ 	pointLeftX 	pointLeftY 	pointLeftZ 		
5.005000 -66.072878 38.466859 -0.000000 0.365691 0.469471 -0.136076 184.402080 190.737332 -0.000000 0.207108 0.167441 -0.377380
5.010000 -62.683090 55.384473 -0.000000 0.372916 0.466042 -0.135024 169.586081 154.538281 -0.000000 0.199698 0.171780 -0.377680
5.015000 -60.732911 75.335751 -0.000000 0.379750 0.462208 -0.134035 156.013247 124.644393 -0.000000 0.192535 0.176867 -0.377856
5.020000 -60.121552 98.852105 -0.000000 0.385925 0.457614 -0.132962 144.131322 101.048869 -0.000000 0.185629 0.182284 -0.378063
5.025000 -60.593718 126.256959 -0.000000 0.391461 0.452525 -0.132256 134.406200 83.521566 -0.000000 0.179050 0.188389 -0.378251
5.030000 -61.924476 157.547568 -0.000000 0.396436 0.446737 -0.131464 127.144006 71.752803 -0.000000 0.172794 0.194941 -0.378277
5.035000 -64.131540 192.413515 -0.000000 0.400884 0.440386 -0.130632 122.438346 65.391931 -0.000000 0.166917 0.201887 -0.378167
5.040000 -67.418475 230.368780 -0.000000 0.404852 0.433698 -0.130259 120.231757 63.894551 -0.000000 0.161487 0.209356 -0.378024
5.045000 -71.942071 270.912766 -0.000000 0.408402 0.426392 -0.129712 120.352824 66.445864 -0.000000 0.156405 0.217170 -0.378056
5.050000 -78.423418 313.464599 -0.000000 0.411305 0.418759 -0.129495 122.373521 72.319383 -0.000000 0.151793 0.225353 -0.378134
5.055000 -86.551003 357.775221 -0.000000 0.414241 0.410625 -0.129894 126.012349 80.271016 -0.000000 0.147622 0.234070 -0.378098
5.060000 -96.553830 403.392242 -0.000000 0.416804 0.401630 -0.129870 130.734819 89.327533 -0.000000 0.144072 0.243121 -0.378066
5.065000 -108.205645 449.829093 -0.000000 0.419250 0.392059 -0.129848 135.985864 98.479963 -0.000000 0.141125 0.252537 -0.377841
5.070000 -121.777581 496.336970 -0.000000 0.421131 0.382156 -0.129876 141.024640 107.078223 -0.000000 0.138857 0.262119 -0.377716
5.075000 -136.126110 542.447273 -0.000000 0.422676 0.371817 -0.130136 145.423395 114.268142 -0.000000 0.137363 0.271872 -0.377658
5.080000 -150.869519 587.554850 -0.000000 0.423681 0.361326 -0.130414 148.665682 119.597767 -0.000000 0.136673 0.281724 -0.377636
5.085000 -165.027381 631.298272 -0.000000 0.424275 0.350674 -0.130735 150.485873 122.587065 -0.000000 0.136656 0.291529 -0.377622
5.090000 -177.076105 673.529863 -0.000000 0.424173 0.339795 -0.130748 150.845421 122.761790 -0.000000 0.137372 0.301471 -0.377628
5.095000 -185.309718 714.181190 -0.000000 0.423457 0.328551 -0.130750 149.798226 119.749853 -0.000000 0.138873 0.311561 -0.377597
5.100000 -190.728788 752.482019 -0.000000 0.422196 0.317492 -0.130651 146.961455 113.872332 -0.000000 0.140900 0.321487 -0.377567
5.105000 -191.963985 788.319462 -0.000000 0.420319 0.306492 -0.130312 142.382037 105.077347 -0.000000 0.143620 0.331396 -0.377022
5.110000 -188.350193 821.490894 -0.000000 0.417732 0.295492 -0.130334 135.999149 93.630490 -0.000000 0.146797 0.341259 -0.376296
5.115000 -179.721121 851.769113 -0.000000 0.414788 0.284550 -0.130030 127.754159 79.969534 -0.000000 0.150747 0.351056 -0.375987
5.120000 -167.313503 878.666244 -0.000000 0.411093 0.273932 -0.130613 117.558493 64.718926 -0.000000 0.155246 0.360498 -0.375684
5.125000 -149.905109 902.176308 -0.000000 0.406947 0.263639 -0.130960 105.603655 48.097830 -0.000000 0.160287 0.369997 -0.375368
5.130000 -128.099314 921.916550 -0.000000 0.402192 0.253694 -0.131355 91.956753 30.545935 -0.000000 0.165776 0.379353 -0.374920
5.135000 -101.528896 937.718209 -0.000000 0.396809 0.243905 -0.131722 76.788076 12.326491 -0.000000 0.171860 0.388447 -0.374570
5.140000 -71.118412 949.319312 -0.000000 0.390935 0.234637 -0.132079 60.285739 -6.237567 -0.000000 0.178444 0.397602 -0.374101
5.145000 -38.375432 956.555053 -0.000000 0.384558 0.225614 -0.132450 42.748238 -24.890581 -0.000000 0.185363 0.406341 -0.373680
5.150000 -3.192530 959.365259 -0.000000 0.377834 0.216789 -0.132712 24.524886 -43.530985 -0.000000 0.192769 0.414912 -0.373360
5.155000 32.127057 957.539813 -0.000000 0.370703 0.208513 -0.133161 6.101792 -61.980922 -0.000000 0.200434 0.423143 -0.373069
5.160000 68.369639 950.763143 -0.000000 0.363137 0.200555 -0.133514 -12.160583 -80.071681 -0.000000 0.208405 0.431272 -0.372826
5.165000 103.814011 938.685758 -0.000000 0.355289 0.192990 -0.133857 -29.778451 -97.478276 -0.000000 0.216747 0.438853 -0.372723
5.170000 139.120055 920.752353 -0.000000 0.346696 0.185963 -0.134039 -46.511370 -113.706401 -0.000000 0.225193 0.446292 -0.372529
5.175000 172.694202 896.753612 -0.000000 0.337878 0.179651 -0.134120 -61.949233 -128.204698 -0.000000 0.234102 0.453314 -0.372709
5.180000 202.503779 867.002134 -0.000000 0.328940 0.174037 -0.134371 -75.639180 -140.438412 -0.000000 0.243082 0.459719 -0.373153
5.185000 227.444546 832.095444 -0.000000 0.320226 0.169049 -0.134818 -87.326535 -149.824181 -0.000000 0.252196 0.465517 -0.372677
5.190000 249.188988 792.112917 -0.000000 0.310937 0.164465 -0.135072 -97.368760 -155.512731 -0.000000 0.261399 0.470693 -0.372354
5.195000 265.382034 748.430202 -0.000000 0.301906 0.160672 -0.135381 -105.449667 -157.256873 -0.000000 0.270809 0.475317 -0.372191
5.200000 276.428102 701.827432 -0.000000 0.292877 0.157402 -0.135740 -111.774993 -154.851664 -0.000000 0.280301 0.479219 -0.371921
5.205000 282.919912 653.034822 -0.000000 0.283929 0.154770 -0.136255 -116.638599 -148.413163 -0.000000 0.290140 0.482471 -0.371716
5.210000 284.915227 603.034777 -0.000000 0.274836 0.152713 -0.136421 -120.229343 -138.461581 -0.000000 0.299962 0.484929 -0.371391
5.215000 282.366803 552.929426 -0.000000 0.265858 0.151325 -0.136631 -122.703656 -125.761629 -0.000000 0.309675 0.486883 -0.371256
5.220000 276.107992 503.365801 -0.000000 0.257274 0.150426 -0.137095 -124.383819 -110.969013 -0.000000 0.319559 0.488071 -0.370670
5.225000 267.148660 454.727430 -0.000000 0.248678 0.150143 -0.137429 -125.560231 -94.633085 -0.000000 0.329346 0.488619 -0.370179
5.230000 255.885978 407.562996 -0.000000 0.240146 0.150491 -0.137715 -126.347477 -77.361829 -0.000000 0.338893 0.488579 -0.369694
5.235000 242.705951 362.310879 -0.000000 0.231811 0.151398 -0.137964 -126.881601 -59.682481 -0.000000 0.348102 0.487889 -0.369194
5.240000 228.018103 319.340075 -0.000000 0.223821 0.153121 -0.138241 -127.374390 -42.016760 -0.000000 0.356803 0.486527 -0.368821
5.245000 212.459274 278.859993 -0.000000 0.216051 0.155224 -0.138405 -128.190649 -24.567275 -0.000000 0.365098 0.484479 -0.368515
5.250000 196.469138 241.225713 -0.000000 0.208752 0.157968 -0.138514 -129.805604 -7.454264 -0.000000 0.372967 0.481596 -0.368628
5.255000 180.584065 206.714759 -0.000000 0.201499 0.161314 -0.138701 -132.802426 9.410437 -0.000000 0.380156 0.478076 -0.368630
5.260000 165.212188 175.663919 -0.000000 0.194519 0.165108 -0.138937 -137.784963 26.238231 -0.000000 0.386746 0.473770 -0.368628
5.265000 150.824861 148.214198 -0.000000 0.187922 0.169523 -0.139169 -145.269770 43.534681 -0.000000 0.392775 0.468680 -0.369031
5.270000 137.753979 124.380237 -0.000000 0.181526 0.174567 -0.139496 -155.583000 62.043426 -0.000000 0.398269 0.463003 -0.369484
